<?xml version="1.0" encoding="UTF-8" standalone="no"?>
<!-- Created with Inkscape (http://www.inkscape.org/) -->

<svg
   width="350"
   height="85"
   viewBox="0 0 92.604225 22.4896"
   version="1.1"
   id="svg1"
   inkscape:version="1.3.2 (091e20e, 2023-11-25, custom)"
   sodipodi:docname="vvr-logo.svg"
   xmlns:inkscape="http://www.inkscape.org/namespaces/inkscape"
   xmlns:sodipodi="http://sodipodi.sourceforge.net/DTD/sodipodi-0.dtd"
   xmlns="http://www.w3.org/2000/svg"
   xmlns:svg="http://www.w3.org/2000/svg">
  <sodipodi:namedview
     id="namedview1"
     pagecolor="#323232"
     bordercolor="#000000"
     borderopacity="0.37647059"
     inkscape:showpageshadow="2"
     inkscape:pageopacity="0.0"
     inkscape:pagecheckerboard="true"
     inkscape:deskcolor="#d1d1d1"
     inkscape:document-units="mm"
     inkscape:zoom="2"
     inkscape:cx="213.5"
     inkscape:cy="69.75"
     inkscape:window-width="1920"
     inkscape:window-height="1009"
     inkscape:window-x="1912"
     inkscape:window-y="-8"
     inkscape:window-maximized="1"
     inkscape:current-layer="layer1" />
  <defs
     id="defs1" />
  <g
     inkscape:label="Layer 1"
     inkscape:groupmode="layer"
     id="layer1">
    <path
       id="path27"
       style="font-style:italic;font-weight:bold;font-size:33.5394px;font-family:'Gill Sans MT';-inkscape-font-specification:'Gill Sans MT Bold Italic';letter-spacing:1.66823px;fill:#f9f9f9;stroke-width:0.154482"
       d="M 46.892299,1.1286129 45.076177,14.138065 c 0.383248,0.494256 0.766423,0.98847 1.149358,1.48297 0.590391,-0.75654 1.184078,-1.510855 1.775906,-2.26627 h 1.473372 l 0.02422,-0.176402 h 0.912632 c 1.062064,0 1.829728,0.226684 2.302828,0.680474 0.473102,0.453792 1.13916,1.588582 1.998467,3.403745 l 1.926259,4.098388 h 4.75053 L 58.275743,14.930963 C 57.667469,13.666141 56.958062,12.874089 56.14703,12.555471 v -0.05758 c 1.448271,-0.279998 2.558215,-0.898196 3.330626,-1.854054 0.782064,-0.9558565 1.173122,-2.1001275 1.173122,-3.4325345 0,-1.651028 -0.598323,-3.074813 -1.795558,-4.2720476 -1.187581,-1.2068944 -2.862894,-1.810642 -5.025643,-1.810642 z M 1.1007802,1.2935903 5.8819267,11.301916 H 6.9499381 L 11.519036,1.2935903 H 8.8670584 L 6.391483,6.9306995 3.7815493,1.2935903 Z M 13.957138,3.7641385 v 7.3997625 h 4.302209 V 10.219737 H 15.018295 V 7.9173655 h 3.03403 v -0.949191 h -3.03403 v -2.259872 h 3.140511 v -0.944164 z m 7.085346,0 v 7.4102745 h 1.0607 V 7.9493555 h 0.276028 c 0.346575,0 0.592147,0.04068 0.737143,0.12202 0.148532,0.0778 0.313201,0.206719 0.493562,0.387079 0.183897,0.180362 0.385351,0.422953 0.604612,0.727089 l 0.355547,0.578107 0.328584,0.5410885 0.207021,0.291567 c 0.03183,0.04244 0.05291,0.07281 0.06352,0.09049 l 0.323557,0.487621 h 1.262694 L 26.362888,10.644295 C 26.207283,10.432106 26.000443,10.115488 25.74228,9.6946475 25.332048,9.0262525 25.01394,8.5576845 24.787604,8.2889115 24.56127,8.0201385 24.32945,7.8079135 24.092506,7.6523085 c 0.403159,-0.155605 0.712444,-0.390863 0.928169,-0.705609 0.215725,-0.314747 0.323557,-0.687746 0.323557,-1.119196 0,-0.633031 -0.221049,-1.135403 -0.663109,-1.506733 -0.438523,-0.371331 -1.032571,-0.556628 -1.782304,-0.556628 z m 8.161584,0 v 7.3997625 h 2.344874 c 0.657785,0 1.10332,-0.01765 1.336728,-0.05301 0.233407,-0.0389 0.489751,-0.112929 0.769133,-0.22256 0.477424,-0.180361 0.896489,-0.447476 1.25721,-0.801124 0.353648,-0.3430375 0.626148,-0.7410165 0.817118,-1.1936855 0.190971,-0.45267 0.286083,-0.926624 0.286083,-1.421731 0,-0.69315 -0.173035,-1.333263 -0.519611,-1.920319 -0.346574,-0.587056 -0.813652,-1.030644 -1.400708,-1.331245 -0.587055,-0.304137 -1.384504,-0.456087 -2.392402,-0.456087 z m 9.758803,0 v 7.3997625 h 4.301753 V 10.219737 H 40.023571 V 7.9173655 h 3.034488 v -0.949191 h -3.034488 v -2.259872 h 3.140513 v -0.944164 z m 11.7527,0.753596 h 2.100378 c 1.062064,0 1.892037,0.231652 2.490657,0.695098 0.598617,0.453792 0.898007,1.08147 0.898007,1.882845 0,0.849651 -0.362158,1.554546 -1.086292,2.114545 -0.724135,0.550341 -1.737901,0.8253435 -3.041343,0.8253435 h -2.128712 z m -28.612387,0.148067 h 0.31853 c 0.519862,0 0.890913,0.03873 1.113711,0.116536 0.226335,0.0778 0.401318,0.212105 0.525094,0.403075 0.123778,0.187434 0.186,0.398168 0.186,0.631576 0,0.236943 -0.05684,0.449169 -0.170004,0.636602 -0.109632,0.183897 -0.265019,0.321638 -0.466598,0.413586 -0.198043,0.09195 -0.566113,0.138015 -1.103658,0.138015 h -0.403075 z m 8.162041,0.0425 h 1.326218 c 0.509253,0 0.878813,0.01914 1.108684,0.05804 0.229872,0.0389 0.472006,0.118771 0.726632,0.239011 0.258163,0.120241 0.486088,0.274139 0.684131,0.461572 0.537545,0.50218 0.806607,1.151117 0.806607,1.946825 0,0.809854 -0.261728,1.479876 -0.785128,2.010348 -0.162678,0.162678 -0.343047,0.300419 -0.54109,0.413586 -0.194506,0.109631 -0.438587,0.2017625 -0.732115,0.2760285 -0.293528,0.07073 -0.705716,0.106024 -1.236189,0.106024 h -1.35775 z m 38.530227,4.581894 -5.83499,12.0707735 h 2.789535 l 1.160326,-2.601709 h 3.702166 l 0.366972,2.601709 h 2.601708 L 71.48262,9.2901965 Z m 9.4942,0.153553 -1.680393,11.9172205 h 2.533614 L 80.823267,9.4437495 Z m 6.662164,0 -1.680851,11.9172205 H 91.22187 L 91.503386,19.37347 H 86.086093 L 87.476749,9.4437495 Z M 1.1007802,11.353099 5.8819267,21.360969 H 6.9499381 L 11.519036,11.353099 H 8.8670584 l -2.4755754,5.63711 -2.6099337,-5.63711 z m 68.6671708,0.436437 0.631118,5.271965 h -2.75526 z m -53.444918,1.991154 -3.182557,7.453232 h 1.087206 l 0.933654,-2.196348 h 3.151023 l 0.986665,2.196348 h 1.087663 L 17.071144,13.78069 Z m 6.501756,0.0425 v 7.410731 h 4.397265 v -0.965642 h -3.336565 v -6.445087 z m 6.946875,0 v 7.410731 h 4.397722 v -0.965642 h -3.336565 v -6.445087 z m 6.947331,0 v 7.399763 h 4.301753 v -0.944164 h -3.241053 v -2.301915 h 3.034488 v -0.949649 h -3.034488 v -2.259871 h 3.140513 V 13.82319 Z m 6.236239,0 2.73698,3.490575 v 3.920156 h 1.087663 v -3.920156 l 2.73698,-3.490575 H 48.233141 L 46.222792,16.380111 44.23895,13.82319 Z m 6.305246,1.083549 c -0.670373,0.854964 -1.340494,1.710305 -2.012177,2.564234 v 3.889995 h 1.121481 z m -32.576417,0.502245 1.193231,2.684425 h -2.301916 z m 28.016458,1.42036 -0.632489,4.531624 h 1.154842 c -4.47e-4,-1.279482 0.01597,-2.559245 -0.02468,-3.838354 -0.161901,-0.234103 -0.329024,-0.464259 -0.497675,-0.69327 z" />
  </g>
</svg>
